<svg width="50" height="77" viewBox="0 0 50 77" fill="none"
    xmlns="http://www.w3.org/2000/svg">
    <path fill-rule="evenodd" clip-rule="evenodd" d="M45.9998 21.0966L46 21C46 9.40202 36.598 0 25 0C14.1757 0 5.26409 8.18954 4.12336 18.7105L15.79 24.4142C16.3617 23.6184 17.2953 23.1 18.35 23.1C19.2427 23.1 20.0487 23.4714 20.6219 24.068L29.9002 16.4134C29.9198 14.6906 31.3225 13.3 33.05 13.3C34.6572 13.3 35.9833 14.5037 36.1759 16.0587L45.9998 21.0966ZM21.4857 25.9482L30.5994 18.4294C31.1769 19.1434 32.0601 19.6 33.05 19.6C34.1912 19.6 35.1907 18.9931 35.7433 18.0845L45.8775 23.2815C44.7404 33.8063 35.8271 42 25 42C13.402 42 4 32.598 4 21C4 20.9588 4.00012 20.9177 4.00035 20.8766L15.2016 26.3528C15.2559 28.0449 16.6447 29.4 18.35 29.4C20.0897 29.4 21.5 27.9897 21.5 26.25C21.5 26.1482 21.4952 26.0475 21.4857 25.9482Z" fill="#605BFF"/>
    <path d="M3.036 69C2.21467 69 1.804 68.5893 1.804 67.768V54.722C1.804 53.9007 2.21467 53.49 3.036 53.49H8.272C9.88533 53.49 11.132 53.8493 12.012 54.568C12.9067 55.272 13.354 56.262 13.354 57.538C13.354 58.374 13.134 59.0927 12.694 59.694C12.254 60.2953 11.6527 60.7353 10.89 61.014C11.7847 61.2487 12.4813 61.6813 12.98 62.312C13.4787 62.9427 13.728 63.742 13.728 64.71C13.728 66.0887 13.266 67.152 12.342 67.9C11.4327 68.6333 10.164 69 8.536 69H3.036ZM4.004 60.266H7.92C10.0613 60.266 11.132 59.43 11.132 57.758C11.132 56.086 10.0613 55.25 7.92 55.25H4.004V60.266ZM4.004 67.24H8.272C10.428 67.24 11.506 66.3673 11.506 64.622C11.506 62.8913 10.428 62.026 8.272 62.026H4.004V67.24ZM19.9901 69.198C19.2421 69.198 18.5748 69.0513 17.9881 68.758C17.4014 68.4647 16.9321 68.0687 16.5801 67.57C16.2428 67.0713 16.0741 66.5067 16.0741 65.876C16.0741 65.084 16.2721 64.4607 16.6681 64.006C17.0788 63.5513 17.7461 63.2213 18.6701 63.016C19.6088 62.8107 20.8701 62.708 22.4541 62.708H23.2021V62.136C23.2021 61.3 23.0261 60.6987 22.6741 60.332C22.3221 59.9653 21.7428 59.782 20.9361 59.782C20.4668 59.782 19.9754 59.8407 19.4621 59.958C18.9634 60.0753 18.4428 60.2733 17.9001 60.552C17.5921 60.6987 17.3354 60.7207 17.1301 60.618C16.9394 60.5153 16.8074 60.354 16.7341 60.134C16.6608 59.914 16.6681 59.6867 16.7561 59.452C16.8441 59.2173 17.0274 59.0413 17.3061 58.924C17.9514 58.6307 18.5894 58.418 19.2201 58.286C19.8508 58.1393 20.4448 58.066 21.0021 58.066C22.4688 58.066 23.5541 58.418 24.2581 59.122C24.9621 59.8113 25.3141 60.8967 25.3141 62.378V68.032C25.3141 68.78 24.9694 69.154 24.2801 69.154C23.5761 69.154 23.2241 68.78 23.2241 68.032V67.218C22.9601 67.834 22.5494 68.318 21.9921 68.67C21.4348 69.022 20.7674 69.198 19.9901 69.198ZM20.4301 67.614C21.2221 67.614 21.8821 67.3353 22.4101 66.778C22.9381 66.2207 23.2021 65.5167 23.2021 64.666V64.072H22.4761C21.4054 64.072 20.5621 64.1233 19.9461 64.226C19.3448 64.3287 18.9121 64.5047 18.6481 64.754C18.3988 64.9887 18.2741 65.3187 18.2741 65.744C18.2741 66.3013 18.4648 66.756 18.8461 67.108C19.2274 67.4453 19.7554 67.614 20.4301 67.614ZM32.1365 69.198C31.4912 69.198 30.8238 69.1247 30.1345 68.978C29.4452 68.8313 28.8218 68.582 28.2645 68.23C28.0152 68.0833 27.8612 67.9 27.8025 67.68C27.7438 67.46 27.7585 67.2547 27.8465 67.064C27.9345 66.8733 28.0738 66.7413 28.2645 66.668C28.4698 66.58 28.6972 66.602 28.9465 66.734C29.5185 67.042 30.0685 67.262 30.5965 67.394C31.1245 67.526 31.6452 67.592 32.1585 67.592C32.9358 67.592 33.5225 67.4527 33.9185 67.174C34.3145 66.8953 34.5125 66.5213 34.5125 66.052C34.5125 65.6707 34.3805 65.3773 34.1165 65.172C33.8525 64.952 33.4565 64.7833 32.9285 64.666L30.8385 64.248C28.9905 63.8667 28.0665 62.9133 28.0665 61.388C28.0665 60.376 28.4698 59.5693 29.2765 58.968C30.0832 58.3667 31.1392 58.066 32.4445 58.066C33.7645 58.066 34.9012 58.3887 35.8545 59.034C36.0892 59.1807 36.2285 59.364 36.2725 59.584C36.3165 59.7893 36.2872 59.9873 36.1845 60.178C36.0818 60.354 35.9278 60.4787 35.7225 60.552C35.5318 60.6253 35.3045 60.596 35.0405 60.464C34.6005 60.2 34.1605 60.0093 33.7205 59.892C33.2805 59.76 32.8552 59.694 32.4445 59.694C31.6818 59.694 31.1025 59.8407 30.7065 60.134C30.3105 60.4127 30.1125 60.794 30.1125 61.278C30.1125 62.0113 30.5965 62.4807 31.5645 62.686L33.6545 63.104C34.6078 63.2947 35.3265 63.6173 35.8105 64.072C36.3092 64.5267 36.5585 65.1427 36.5585 65.92C36.5585 66.9467 36.1552 67.7533 35.3485 68.34C34.5418 68.912 33.4712 69.198 32.1365 69.198ZM44.0688 69.198C42.3088 69.198 40.9228 68.7067 39.9108 67.724C38.8988 66.7267 38.3928 65.37 38.3928 63.654C38.3928 62.554 38.6128 61.586 39.0528 60.75C39.5074 59.8993 40.1308 59.2393 40.9228 58.77C41.7148 58.3007 42.6241 58.066 43.6508 58.066C45.1321 58.066 46.2981 58.5427 47.1488 59.496C47.9994 60.4347 48.4248 61.7327 48.4248 63.39C48.4248 63.8887 48.1314 64.138 47.5448 64.138H40.5488C40.7101 66.3673 41.8908 67.482 44.0908 67.482C44.5308 67.482 44.9928 67.4307 45.4768 67.328C45.9608 67.2107 46.4301 67.0053 46.8848 66.712C47.1928 66.536 47.4568 66.4773 47.6768 66.536C47.9114 66.58 48.0801 66.7047 48.1828 66.91C48.2854 67.1007 48.3001 67.3207 48.2268 67.57C48.1681 67.8047 47.9994 68.01 47.7208 68.186C47.2221 68.5233 46.6354 68.78 45.9608 68.956C45.3008 69.1173 44.6701 69.198 44.0688 69.198ZM43.7388 59.628C42.8148 59.628 42.0814 59.914 41.5388 60.486C40.9961 61.058 40.6661 61.8207 40.5488 62.774H46.5548C46.5108 61.7767 46.2468 61.0067 45.7628 60.464C45.2788 59.9067 44.6041 59.628 43.7388 59.628Z" fill="#030229"/>
</svg>